<svg xmlns="http://www.w3.org/2000/svg" width="1200" height="200" viewBox="0 0 1200 200">
  <defs>
    <linearGradient id="grad" x1="0%" y1="0%" x2="100%" y2="0%">
      <stop offset="0%" style="stop-color:#0d1117;stop-opacity:1" />
      <stop offset="50%" style="stop-color:#1a1a2e;stop-opacity:1" />
      <stop offset="100%" style="stop-color:#16213e;stop-opacity:1" />
    </linearGradient>
    <clipPath id="waveClip">
      <path d="M0,0 L1200,0 L1200,160 Q900,200 600,170 Q300,140 0,180 Z"/>
    </clipPath>
  </defs>
  <!-- Background -->
  <rect width="1200" height="200" fill="url(#grad)"/>
  <!-- Wave shape at bottom -->
  <path d="M0,140 Q150,110 300,130 Q450,150 600,130 Q750,110 900,130 Q1050,150 1200,130 L1200,200 L0,200 Z" fill="#0d1117" opacity="0.4"/>
  <path d="M0,160 Q200,135 400,155 Q600,175 800,150 Q1000,125 1200,150 L1200,200 L0,200 Z" fill="#0d1117" opacity="0.6"/>
  <!-- Name text -->
  <text x="600" y="85" font-family="Arial, sans-serif" font-size="52" font-weight="bold" fill="#58a6ff" text-anchor="middle" letter-spacing="2">Amruth Kumar M</text>
  <!-- Subtitle -->
  <text x="600" y="130" font-family="Arial, sans-serif" font-size="17" fill="#c9d1d9" text-anchor="middle" letter-spacing="1">Final Year AI &amp; Data Science Student  |  Reva University, Bengaluru</text>
</svg>
